<?xml version="1.0" encoding="utf-8"?>
<!-- Generator: Adobe Illustrator 15.1.0, SVG Export Plug-In . SVG Version: 6.00 Build 0)  -->
<!DOCTYPE svg PUBLIC "-//W3C//DTD SVG 1.1//EN" "http://www.w3.org/Graphics/SVG/1.1/DTD/svg11.dtd">
<svg version="1.1" id="Layer_1" xmlns="http://www.w3.org/2000/svg" xmlns:xlink="http://www.w3.org/1999/xlink" x="0px" y="0px"
	 width="1231.73px" height="403.438px" viewBox="0 0 1231.73 403.438" enable-background="new 0 0 1231.73 403.438"
	 xml:space="preserve">
<g>
	<g>
		<path fill="#FFFFFF" d="M287.729,84.591c17.162,0,31.123,13.961,31.123,31.123v172.021c0,17.155-13.961,31.111-31.123,31.111
			H115.717c-17.162,0-31.125-13.956-31.125-31.111V115.714c0-17.162,13.963-31.123,31.125-31.123H287.729 M287.729,71.576H115.717
			c-24.377,0-44.141,19.758-44.141,44.138v172.021c0,24.369,19.764,44.126,44.141,44.126h172.012
			c24.379,0,44.137-19.757,44.137-44.126V115.714C331.865,91.334,312.107,71.576,287.729,71.576L287.729,71.576z"/>
		<g>
			
				<rect x="99.937" y="199.964" transform="matrix(0.7071 -0.7071 0.7071 0.7071 -112.8536 164.4622)" fill="#FFFFFF" width="84.32" height="36.987"/>
			
				<rect x="142.824" y="242.856" transform="matrix(0.7071 -0.7071 0.7071 0.7071 -130.617 207.343)" fill="#FFFFFF" width="84.323" height="36.98"/>
			
				<rect x="176.296" y="123.606" transform="matrix(0.7071 -0.7071 0.7071 0.7071 -36.4938 196.0905)" fill="#FFFFFF" width="84.325" height="36.983"/>
			
				<rect x="219.183" y="166.493" transform="matrix(0.7071 -0.7071 0.7071 0.7071 -54.2559 238.9905)" fill="#FFFFFF" width="84.325" height="36.984"/>
		</g>
	</g>
	<g>
		<path fill="#FFFFFF" d="M487.209,253.354c-5.246,2.627-15.734,5.249-29.178,5.249c-31.15,0-54.59-19.673-54.59-55.905
			c0-34.582,23.439-58.023,57.701-58.023c13.773,0,22.459,2.95,26.227,4.913l-3.439,11.644c-5.412-2.629-13.113-4.591-22.293-4.591
			c-25.902,0-43.113,16.553-43.113,45.573c0,27.043,15.57,44.422,42.457,44.422c8.691,0,17.537-1.805,23.279-4.592L487.209,253.354z
			"/>
		<path fill="#FFFFFF" d="M504.586,140.574h14.428v116.389h-14.428V140.574z"/>
		<path fill="#FFFFFF" d="M615.074,216.637c0,29.347-20.326,42.125-39.508,42.125c-21.475,0-38.027-15.735-38.027-40.814
			c0-26.559,17.373-42.128,39.34-42.128C599.666,175.819,615.074,192.376,615.074,216.637z M552.127,217.457
			c0,17.373,10.002,30.488,24.1,30.488c13.768,0,24.094-12.953,24.094-30.815c0-13.443-6.721-30.494-23.77-30.494
			S552.127,202.372,552.127,217.457z"/>
		<path fill="#FFFFFF" d="M631.309,242.211c4.26,2.786,11.801,5.734,19.018,5.734c10.488,0,15.406-5.246,15.406-11.798
			c0-6.891-4.1-10.655-14.758-14.59c-14.258-5.088-20.982-12.951-20.982-22.466c0-12.787,10.332-23.272,27.381-23.272
			c8.029,0,15.082,2.297,19.506,4.918l-3.607,10.491c-3.115-1.969-8.85-4.593-16.23-4.593c-8.521,0-13.277,4.923-13.277,10.819
			c0,6.561,4.756,9.512,15.086,13.447c13.77,5.242,20.816,12.127,20.816,23.928c0,13.935-10.816,23.773-29.67,23.773
			c-8.689,0-16.723-2.129-22.293-5.405L631.309,242.211z"/>
		<path fill="#FFFFFF" d="M706.223,219.916c0.334,19.508,12.787,27.537,27.217,27.537c10.326,0,16.557-1.8,21.961-4.098
			l2.457,10.332c-5.078,2.294-13.768,4.916-26.387,4.916c-24.426,0-39.014-16.067-39.014-40.003c0-23.933,14.1-42.781,37.211-42.781
			c25.9,0,32.785,22.784,32.785,37.374c0,2.951-0.326,5.246-0.494,6.723H706.223z M748.514,209.584
			c0.17-9.173-3.764-23.44-19.994-23.44c-14.594,0-20.982,13.448-22.133,23.44H748.514z"/>
		<path fill="#FFFFFF" d="M848.844,140.574v95.898c0,7.048,0.164,15.079,0.658,20.49h-12.955l-0.652-13.766h-0.324
			c-4.434,8.848-14.104,15.564-27.053,15.564c-19.18,0-33.93-16.226-33.93-40.322c-0.166-26.389,16.225-42.62,35.572-42.62
			c12.129,0,20.322,5.737,23.932,12.132h0.328v-47.377H848.844z M834.42,209.914c0-1.801-0.162-4.262-0.658-6.065
			c-2.133-9.181-9.994-16.718-20.813-16.718c-14.92,0-23.775,13.114-23.775,30.657c0,16.059,7.865,29.34,23.441,29.34
			c9.674,0,18.521-6.39,21.146-17.211c0.496-1.962,0.658-3.931,0.658-6.231V209.914z"/>
		<path fill="#FFFFFF" d="M933.768,256.963l-14.102-24.426c-5.744-9.344-9.344-15.407-12.791-21.802h-0.324
			c-3.115,6.395-6.229,12.294-11.971,21.968l-13.271,24.26h-16.396l33.77-55.9l-32.455-54.588h16.555l14.588,25.903
			c4.102,7.21,7.215,12.783,10.162,18.684h0.494c3.115-6.556,5.896-11.64,10-18.684l15.082-25.903h16.391l-33.607,53.771
			l34.43,56.718H933.768z"/>
		<path fill="#FFFFFF" d="M1059.99,208.439c-0.822-15.409-1.809-33.932-1.643-47.705h-0.488
			c-3.773,12.949-8.359,26.722-13.932,41.964l-19.508,53.61h-10.818l-17.867-52.622c-5.25-15.57-9.674-29.834-12.791-42.952h-0.332
			c-0.324,13.773-1.143,32.296-2.123,48.85l-2.951,47.379h-13.609l7.703-110.488h18.199l18.854,53.438
			c4.584,13.61,8.354,25.737,11.141,37.214h0.498c2.783-11.141,6.719-23.277,11.637-37.214l19.672-53.438h18.195l6.883,110.488
			h-13.932L1059.99,208.439z"/>
		<path fill="#FFFFFF" d="M1098.68,146.475h14.264v98.522h47.211v11.966h-61.475V146.475z"/>
	</g>
</g>
</svg>
