<?xml version="1.0" encoding="utf-8"?>
<!-- Generator: Adobe Illustrator 15.1.0, SVG Export Plug-In . SVG Version: 6.00 Build 0)  -->
<!DOCTYPE svg PUBLIC "-//W3C//DTD SVG 1.1//EN" "http://www.w3.org/Graphics/SVG/1.1/DTD/svg11.dtd">
<svg version="1.1" id="Layer_1" xmlns="http://www.w3.org/2000/svg" xmlns:xlink="http://www.w3.org/1999/xlink" x="0px" y="0px"
	 width="1000px" height="1000px" viewBox="0 0 1000 1000" enable-background="new 0 0 1000 1000" xml:space="preserve">
<g>
	<path fill="#5BA4D7" d="M900,235.659V764.38C900,839.277,839.273,900,764.344,900H235.666C160.74,900,100,839.277,100,764.38
		V235.659C100,160.729,160.74,100,235.666,100h528.678C839.273,100,900,160.729,900,235.659z"/>
	<g>
		<g>
			<polygon fill="#FFFFFF" points="473.155,508.021 377.652,603.524 335.765,561.629 431.271,466.127 			"/>
			
				<rect x="405.624" y="573.902" transform="matrix(0.7071 -0.7071 0.7071 0.7071 -288.1702 511.3497)" fill="#FFFFFF" width="135.071" height="59.24"/>
			
				<rect x="459.241" y="382.888" transform="matrix(0.7071 -0.7071 0.7071 0.7071 -137.3972 493.312)" fill="#FFFFFF" width="135.072" height="59.239"/>
			
				<rect x="527.937" y="451.586" transform="matrix(0.7071 -0.7071 0.7071 0.7071 -165.8495 562.041)" fill="#FFFFFF" width="135.075" height="59.24"/>
		</g>
		<g>
			<path fill="#FFFFFF" d="M164.516,496.124c24.677,0,30.51-16.6,30.51-31.404c0-13.016-1.347-25.578-2.691-38.14
				c-1.35-13.46-2.694-25.575-2.694-39.485c0-40.38,24.679-57.43,56.532-57.43h5.385v23.33h-6.729
				c-18.846,0-26.473,13.463-26.473,33.652c0,12.115,1.346,23.332,2.692,34.1c0.896,11.665,2.243,22.433,2.243,33.202
				c0.448,34.998-11.665,47.113-30.957,52.498v0.895c19.292,5.835,31.405,17.95,30.957,53.393c0,11.214-1.348,22.435-2.243,33.652
				c-1.347,11.218-2.692,22.435-2.692,34.547c0,20.19,6.73,34.101,26.92,34.101h6.281v23.329h-5.832
				c-29.613,0-56.085-14.805-56.085-57.43c0-13.46,1.345-26.92,2.694-39.932c1.345-13.013,2.691-26.022,2.691-38.585
				c0-14.36-5.833-31.857-30.51-31.857V496.124z"/>
			<path fill="#FFFFFF" d="M247.5,496.124c24.676,0,30.509-16.6,30.509-31.404c0-13.016-1.347-25.578-2.692-38.14
				c-1.347-13.46-2.693-25.575-2.693-39.485c0-40.38,24.678-57.43,56.535-57.43h5.383v23.33h-6.731
				c-18.845,0-26.47,13.463-26.47,33.652c0,12.115,1.346,23.332,2.69,34.1c0.899,11.665,2.243,22.433,2.243,33.202
				c0.449,34.998-11.666,47.113-30.957,52.498v0.895c19.291,5.835,31.406,17.95,30.957,53.393c0,11.214-1.344,22.435-2.243,33.652
				c-1.345,11.218-2.69,22.435-2.69,34.547c0,20.19,6.729,34.101,26.92,34.101h6.281v23.329h-5.834
				c-29.611,0-56.084-14.805-56.084-57.43c0-13.46,1.347-26.92,2.693-39.932c1.346-13.013,2.692-26.022,2.692-38.585
				c0-14.36-5.833-31.857-30.509-31.857V496.124z"/>
		</g>
		<g>
			<path fill="#FFFFFF" d="M835.686,518.56c-24.678,0-30.508,17.497-30.508,31.857c0,12.563,1.346,25.572,2.691,38.585
				c1.348,13.012,2.691,26.472,2.691,39.932c0,42.625-26.471,57.43-56.084,57.43h-5.832v-23.329h6.281
				c20.191,0,26.922-13.91,26.922-34.101c0-12.112-1.348-23.329-2.693-34.547c-0.896-11.218-2.244-22.438-2.244-33.652
				c-0.449-35.442,11.666-47.558,30.959-53.393v-0.895c-19.293-5.385-31.408-17.5-30.959-52.498c0-10.77,1.348-21.537,2.244-33.202
				c1.346-10.768,2.693-21.984,2.693-34.1c0-20.189-7.629-33.652-26.477-33.652h-6.727v-23.33h5.385
				c31.855,0,56.531,17.05,56.531,57.43c0,13.91-1.344,26.025-2.691,39.485c-1.346,12.562-2.691,25.124-2.691,38.14
				c0,14.805,5.83,31.404,30.508,31.404V518.56z"/>
			<path fill="#FFFFFF" d="M752.703,518.56c-24.678,0-30.51,17.497-30.51,31.857c0,12.563,1.346,25.572,2.693,38.585
				c1.344,13.012,2.691,26.472,2.691,39.932c0,42.625-26.471,57.43-56.082,57.43h-5.836v-23.329h6.281
				c20.191,0,26.92-13.91,26.92-34.101c0-12.112-1.344-23.329-2.691-34.547c-0.898-11.218-2.242-22.438-2.242-33.652
				c-0.451-35.442,11.664-47.558,30.959-53.393v-0.895c-19.295-5.385-31.41-17.5-30.959-52.498c0-10.77,1.344-21.537,2.242-33.202
				c1.348-10.768,2.691-21.984,2.691-34.1c0-20.189-7.627-33.652-26.471-33.652h-6.73v-23.33h5.385
				c31.855,0,56.533,17.05,56.533,57.43c0,13.91-1.348,26.025-2.691,39.485c-1.348,12.562-2.693,25.124-2.693,38.14
				c0,14.805,5.832,31.404,30.51,31.404V518.56z"/>
		</g>
	</g>
</g>
</svg>
