<?xml version="1.0" encoding="utf-8"?>
<!-- Generator: Adobe Illustrator 15.1.0, SVG Export Plug-In . SVG Version: 6.00 Build 0)  -->
<!DOCTYPE svg PUBLIC "-//W3C//DTD SVG 1.1//EN" "http://www.w3.org/Graphics/SVG/1.1/DTD/svg11.dtd">
<svg version="1.1" id="Layer_1" xmlns="http://www.w3.org/2000/svg" xmlns:xlink="http://www.w3.org/1999/xlink" x="0px" y="0px"
	 width="624.95px" height="592.74px" viewBox="0 0 624.95 592.74" enable-background="new 0 0 624.95 592.74" xml:space="preserve">
<g>
	<path fill="#5BA4D7" d="M472.479,139.434v211.488c0,29.959-24.291,54.248-54.266,54.248H206.745
		c-29.971,0-54.266-24.289-54.266-54.248V139.434c0-29.972,24.295-54.264,54.266-54.264h211.469
		C448.188,85.17,472.479,109.462,472.479,139.434z"/>
	<g>
		<g>
			
				<rect x="247.25" y="247.25" transform="matrix(0.7071 -0.7071 0.7071 0.7071 -102.8813 269.8264)" fill="#FFFFFF" width="54.025" height="23.698"/>
			
				<rect x="274.728" y="274.73" transform="matrix(0.7071 -0.7071 0.7071 0.7071 -114.2633 297.3062)" fill="#FFFFFF" width="54.028" height="23.696"/>
			
				<rect x="296.175" y="198.325" transform="matrix(0.7071 -0.7071 0.7071 0.7071 -53.9536 290.0925)" fill="#FFFFFF" width="54.028" height="23.696"/>
			
				<rect x="323.653" y="225.804" transform="matrix(0.7071 -0.7071 0.7071 0.7071 -65.3329 317.5876)" fill="#FFFFFF" width="54.03" height="23.696"/>
		</g>
		<g>
			<path fill="#FFFFFF" d="M178.286,243.619c9.869,0,12.203-6.64,12.203-12.562c0-5.206-0.539-10.231-1.076-15.256
				c-0.541-5.384-1.078-10.229-1.078-15.794c0-16.152,9.871-22.972,22.613-22.972h2.154v9.332h-2.693
				c-7.537,0-10.588,5.385-10.588,13.461c0,4.846,0.539,9.333,1.076,13.64c0.359,4.666,0.898,8.973,0.898,13.281
				c0.178,13.999-4.666,18.845-12.383,20.999v0.357c7.717,2.334,12.561,7.181,12.383,21.357c0,4.485-0.539,8.974-0.898,13.461
				c-0.537,4.487-1.076,8.974-1.076,13.818c0,8.076,2.691,13.641,10.768,13.641h2.514v9.331h-2.334
				c-11.846,0-22.434-5.922-22.434-22.972c0-5.384,0.537-10.768,1.078-15.973c0.537-5.205,1.076-10.409,1.076-15.434
				c0-5.744-2.334-12.743-12.203-12.743V243.619z"/>
			<path fill="#FFFFFF" d="M211.479,243.619c9.869,0,12.203-6.64,12.203-12.562c0-5.206-0.539-10.231-1.078-15.256
				c-0.537-5.384-1.076-10.229-1.076-15.794c0-16.152,9.871-22.972,22.613-22.972h2.154v9.332h-2.693
				c-7.537,0-10.588,5.385-10.588,13.461c0,4.846,0.539,9.333,1.076,13.64c0.359,4.666,0.898,8.973,0.898,13.281
				c0.18,13.999-4.668,18.845-12.385,20.999v0.357c7.717,2.334,12.564,7.181,12.385,21.357c0,4.485-0.539,8.974-0.898,13.461
				c-0.537,4.487-1.076,8.974-1.076,13.818c0,8.076,2.691,13.641,10.768,13.641h2.514v9.331h-2.334
				c-11.844,0-22.434-5.922-22.434-22.972c0-5.384,0.539-10.768,1.076-15.973c0.539-5.205,1.078-10.409,1.078-15.434
				c0-5.744-2.334-12.743-12.203-12.743V243.619z"/>
		</g>
		<g>
			<path fill="#FFFFFF" d="M446.753,252.594c-9.871,0-12.203,6.999-12.203,12.743c0,5.024,0.539,10.229,1.076,15.434
				c0.539,5.205,1.078,10.589,1.078,15.973c0,17.05-10.59,22.972-22.436,22.972h-2.334v-9.331h2.514
				c8.076,0,10.768-5.564,10.768-13.641c0-4.845-0.539-9.331-1.076-13.818c-0.359-4.487-0.898-8.976-0.898-13.461
				c-0.18-14.177,4.668-19.023,12.385-21.357v-0.357c-7.717-2.154-12.564-7-12.385-20.999c0-4.309,0.539-8.615,0.898-13.281
				c0.537-4.307,1.076-8.794,1.076-13.64c0-8.076-3.051-13.461-10.59-13.461h-2.691v-9.332h2.154
				c12.744,0,22.615,6.819,22.615,22.972c0,5.564-0.539,10.41-1.078,15.794c-0.537,5.024-1.076,10.05-1.076,15.256
				c0,5.922,2.332,12.562,12.203,12.562V252.594z"/>
			<path fill="#FFFFFF" d="M413.558,252.594c-9.871,0-12.203,6.999-12.203,12.743c0,5.024,0.539,10.229,1.078,15.434
				c0.537,5.205,1.076,10.589,1.076,15.973c0,17.05-10.59,22.972-22.434,22.972h-2.334v-9.331h2.512
				c8.078,0,10.77-5.564,10.77-13.641c0-4.845-0.539-9.331-1.078-13.818c-0.359-4.487-0.896-8.976-0.896-13.461
				c-0.18-14.177,4.666-19.023,12.385-21.357v-0.357c-7.719-2.154-12.564-7-12.385-20.999c0-4.309,0.537-8.615,0.896-13.281
				c0.539-4.307,1.078-8.794,1.078-13.64c0-8.076-3.051-13.461-10.59-13.461h-2.691v-9.332h2.154
				c12.742,0,22.613,6.819,22.613,22.972c0,5.564-0.539,10.41-1.076,15.794c-0.539,5.024-1.078,10.05-1.078,15.256
				c0,5.922,2.332,12.562,12.203,12.562V252.594z"/>
		</g>
	</g>
	<g>
		<path fill="#5BA4D7" d="M131.491,509.417c-3.221,1.615-9.668,3.227-17.926,3.227c-19.135,0-33.537-12.088-33.537-34.346
			c0-21.25,14.402-35.654,35.449-35.654c8.463,0,13.801,1.816,16.115,3.025l-2.115,7.15c-3.322-1.611-8.057-2.82-13.695-2.82
			c-15.914,0-26.486,10.17-26.486,28c0,16.613,9.566,27.291,26.082,27.291c5.34,0,10.777-1.107,14.303-2.82L131.491,509.417z"/>
		<path fill="#5BA4D7" d="M142.169,440.128h8.865v71.508h-8.865V440.128z"/>
		<path fill="#5BA4D7" d="M210.05,486.86c0,18.029-12.488,25.881-24.271,25.881c-13.191,0-23.365-9.668-23.365-25.076
			c0-16.316,10.676-25.881,24.17-25.881C200.583,461.784,210.05,471.954,210.05,486.86z M171.376,487.362
			c0,10.676,6.146,18.732,14.807,18.732c8.461,0,14.803-7.957,14.803-18.936c0-8.256-4.129-18.73-14.604-18.73
			S171.376,478.095,171.376,487.362z"/>
		<path fill="#5BA4D7" d="M220.024,502.571c2.617,1.709,7.25,3.523,11.684,3.523c6.445,0,9.465-3.225,9.465-7.252
			c0-4.23-2.518-6.545-9.064-8.961c-8.764-3.125-12.891-7.957-12.891-13.799c0-7.857,6.346-14.299,16.818-14.299
			c4.934,0,9.268,1.408,11.982,3.02l-2.213,6.445c-1.912-1.209-5.438-2.82-9.971-2.82c-5.236,0-8.16,3.021-8.16,6.645
			c0,4.031,2.924,5.844,9.268,8.262c8.459,3.223,12.789,7.451,12.789,14.703c0,8.561-6.643,14.605-18.227,14.605
			c-5.34,0-10.275-1.313-13.697-3.322L220.024,502.571z"/>
		<path fill="#5BA4D7" d="M266.048,488.874c0.203,11.982,7.859,16.918,16.719,16.918c6.344,0,10.176-1.107,13.496-2.518l1.51,6.346
			c-3.119,1.412-8.457,3.023-16.213,3.023c-15.008,0-23.969-9.873-23.969-24.576s8.66-26.283,22.859-26.283
			c15.914,0,20.145,13.994,20.145,22.959c0,1.814-0.201,3.225-0.303,4.131H266.048z M292.032,482.528
			c0.104-5.637-2.314-14.402-12.285-14.402c-8.965,0-12.889,8.26-13.596,14.402H292.032z"/>
		<path fill="#5BA4D7" d="M353.671,440.128v58.916c0,4.33,0.102,9.266,0.404,12.592h-7.957l-0.402-8.463h-0.201
			c-2.719,5.441-8.662,9.568-16.621,9.568c-11.781,0-20.846-9.971-20.846-24.773c-0.102-16.215,9.973-26.184,21.854-26.184
			c7.455,0,12.488,3.521,14.707,7.449h0.201v-29.105H353.671z M344.81,482.729c0-1.107-0.102-2.617-0.404-3.727
			c-1.311-5.639-6.141-10.273-12.787-10.273c-9.166,0-14.605,8.057-14.605,18.836c0,9.869,4.832,18.027,14.402,18.027
			c5.941,0,11.381-3.93,12.99-10.574c0.303-1.209,0.404-2.416,0.404-3.83V482.729z"/>
		<path fill="#5BA4D7" d="M405.841,511.636l-8.66-15.008c-3.527-5.742-5.744-9.469-7.855-13.396h-0.203
			c-1.914,3.928-3.826,7.555-7.354,13.498l-8.156,14.906h-10.068l20.744-34.346l-19.939-33.535h10.17l8.963,15.912
			c2.52,4.432,4.432,7.855,6.244,11.48h0.303c1.914-4.029,3.625-7.148,6.145-11.48l9.266-15.912h10.068l-20.646,33.031l21.15,34.85
			H405.841z"/>
		<path fill="#5BA4D7" d="M483.394,481.825c-0.508-9.469-1.109-20.852-1.008-29.311h-0.305c-2.316,7.959-5.133,16.416-8.559,25.783
			l-11.984,32.934h-6.646l-10.979-32.328c-3.221-9.57-5.939-18.33-7.857-26.389h-0.201c-0.199,8.459-0.705,19.842-1.307,30.014
			l-1.813,29.107h-8.361l4.736-67.881h11.178l11.582,32.832c2.82,8.359,5.135,15.809,6.846,22.863h0.303
			c1.715-6.848,4.131-14.303,7.152-22.863l12.084-32.832h11.178l4.232,67.881h-8.561L483.394,481.825z"/>
		<path fill="#5BA4D7" d="M507.161,443.755h8.762v60.525h29.006v7.355h-37.768V443.755z"/>
	</g>
</g>
</svg>
