<?xml version="1.0" encoding="utf-8"?>
<!-- Generator: Adobe Illustrator 15.1.0, SVG Export Plug-In . SVG Version: 6.00 Build 0)  -->
<!DOCTYPE svg PUBLIC "-//W3C//DTD SVG 1.1//EN" "http://www.w3.org/Graphics/SVG/1.1/DTD/svg11.dtd">
<svg version="1.1" id="Layer_1" xmlns="http://www.w3.org/2000/svg" xmlns:xlink="http://www.w3.org/1999/xlink" x="0px" y="0px"
	 width="624.95px" height="592.74px" viewBox="0 0 624.95 592.74" enable-background="new 0 0 624.95 592.74" xml:space="preserve">
<g>
	<g>
		<path fill="#FFFFFF" d="M418.211,94.584c11.289,0,21.902,4.396,29.885,12.379c7.982,7.98,12.377,18.594,12.377,29.885v211.488
			c0,11.285-4.395,21.895-12.375,29.873c-7.982,7.98-18.598,12.375-29.887,12.375H206.74c-23.307,0-42.268-18.951-42.268-42.248
			V136.848c0-11.289,4.396-21.902,12.379-29.885c7.984-7.982,18.598-12.379,29.889-12.379H418.211 M418.211,82.584H206.74
			c-29.971,0-54.268,24.293-54.268,54.264v211.488c0,29.959,24.297,54.248,54.268,54.248h211.471
			c29.971,0,54.262-24.289,54.262-54.248V136.848C472.473,106.877,448.182,82.584,418.211,82.584L418.211,82.584z"/>
		<g>
			<g>
				<polygon fill="#FFFFFF" points="301.734,245.793 263.533,283.994 246.779,267.236 284.982,229.035 				"/>
				
					<rect x="274.723" y="272.146" transform="matrix(0.7071 -0.7071 0.7071 0.7071 -112.437 296.5296)" fill="#FFFFFF" width="54.029" height="23.695"/>
				
					<rect x="296.17" y="195.741" transform="matrix(0.7071 -0.7071 0.7071 0.7071 -52.1303 289.3175)" fill="#FFFFFF" width="54.029" height="23.694"/>
				
					<rect x="323.648" y="223.219" transform="matrix(0.7071 -0.7071 0.7071 0.7071 -63.506 316.8268)" fill="#FFFFFF" width="54.03" height="23.695"/>
			</g>
			<g>
				<path fill="#FFFFFF" d="M178.279,241.033c9.871,0,12.203-6.639,12.203-12.561c0-5.207-0.537-10.232-1.076-15.256
					c-0.539-5.385-1.078-10.23-1.078-15.795c0-16.152,9.873-22.971,22.613-22.971h2.154v9.332h-2.691
					c-7.539,0-10.59,5.385-10.59,13.461c0,4.846,0.539,9.332,1.078,13.639c0.357,4.666,0.896,8.973,0.896,13.281
					c0.18,14-4.666,18.846-12.383,21v0.357c7.717,2.334,12.563,7.18,12.383,21.357c0,4.484-0.539,8.973-0.896,13.461
					c-0.539,4.486-1.078,8.973-1.078,13.818c0,8.076,2.693,13.641,10.77,13.641h2.512v9.33h-2.332
					c-11.846,0-22.436-5.922-22.436-22.971c0-5.385,0.539-10.768,1.078-15.973s1.076-10.41,1.076-15.434
					c0-5.744-2.332-12.744-12.203-12.744V241.033z"/>
				<path fill="#FFFFFF" d="M211.473,241.033c9.871,0,12.203-6.639,12.203-12.561c0-5.207-0.537-10.232-1.076-15.256
					c-0.539-5.385-1.078-10.23-1.078-15.795c0-16.152,9.871-22.971,22.615-22.971h2.152v9.332h-2.691
					c-7.539,0-10.588,5.385-10.588,13.461c0,4.846,0.537,9.332,1.076,13.639c0.359,4.666,0.896,8.973,0.896,13.281
					c0.18,14-4.666,18.846-12.383,21v0.357c7.717,2.334,12.563,7.18,12.383,21.357c0,4.484-0.537,8.973-0.896,13.461
					c-0.539,4.486-1.076,8.973-1.076,13.818c0,8.076,2.691,13.641,10.768,13.641h2.512v9.33h-2.334
					c-11.844,0-22.434-5.922-22.434-22.971c0-5.385,0.539-10.768,1.078-15.973s1.076-10.41,1.076-15.434
					c0-5.744-2.332-12.744-12.203-12.744V241.033z"/>
			</g>
			<g>
				<path fill="#FFFFFF" d="M446.748,250.008c-9.871,0-12.203,7-12.203,12.744c0,5.023,0.537,10.229,1.076,15.434
					s1.076,10.588,1.076,15.973c0,17.049-10.588,22.971-22.434,22.971h-2.332v-9.33h2.512c8.076,0,10.77-5.564,10.77-13.641
					c0-4.846-0.539-9.332-1.078-13.818c-0.359-4.488-0.898-8.977-0.898-13.461c-0.18-14.178,4.668-19.023,12.385-21.357v-0.357
					c-7.717-2.154-12.564-7-12.385-21c0-4.309,0.539-8.615,0.898-13.281c0.539-4.307,1.078-8.793,1.078-13.639
					c0-8.076-3.053-13.461-10.592-13.461h-2.689v-9.332h2.152c12.742,0,22.613,6.818,22.613,22.971
					c0,5.564-0.537,10.41-1.076,15.795c-0.539,5.023-1.076,10.049-1.076,15.256c0,5.922,2.332,12.561,12.203,12.561V250.008z"/>
				<path fill="#FFFFFF" d="M413.555,250.008c-9.871,0-12.205,7-12.205,12.744c0,5.023,0.539,10.229,1.078,15.434
					c0.537,5.205,1.076,10.588,1.076,15.973c0,17.049-10.588,22.971-22.432,22.971h-2.336v-9.33h2.514
					c8.076,0,10.768-5.564,10.768-13.641c0-4.846-0.537-9.332-1.076-13.818c-0.359-4.488-0.896-8.977-0.896-13.461
					c-0.182-14.178,4.664-19.023,12.383-21.357v-0.357c-7.719-2.154-12.564-7-12.383-21c0-4.309,0.537-8.615,0.896-13.281
					c0.539-4.307,1.076-8.793,1.076-13.639c0-8.076-3.051-13.461-10.588-13.461h-2.693v-9.332h2.154
					c12.742,0,22.613,6.818,22.613,22.971c0,5.564-0.539,10.41-1.076,15.795c-0.539,5.023-1.078,10.049-1.078,15.256
					c0,5.922,2.334,12.561,12.205,12.561V250.008z"/>
			</g>
		</g>
	</g>
	<g>
		<path fill="#FFFFFF" d="M131.488,506.832c-3.221,1.615-9.668,3.227-17.926,3.227c-19.135,0-33.537-12.088-33.537-34.346
			c0-21.25,14.402-35.654,35.449-35.654c8.463,0,13.801,1.816,16.115,3.025l-2.115,7.15c-3.322-1.611-8.057-2.82-13.695-2.82
			c-15.914,0-26.486,10.17-26.486,28c0,16.613,9.566,27.291,26.082,27.291c5.34,0,10.777-1.107,14.303-2.82L131.488,506.832z"/>
		<path fill="#FFFFFF" d="M142.166,437.543h8.865v71.508h-8.865V437.543z"/>
		<path fill="#FFFFFF" d="M210.047,484.275c0,18.029-12.488,25.881-24.271,25.881c-13.191,0-23.365-9.668-23.365-25.076
			c0-16.316,10.676-25.881,24.17-25.881C200.58,459.199,210.047,469.369,210.047,484.275z M171.373,484.777
			c0,10.676,6.146,18.732,14.807,18.732c8.461,0,14.803-7.957,14.803-18.936c0-8.256-4.129-18.73-14.604-18.73
			S171.373,475.51,171.373,484.777z"/>
		<path fill="#FFFFFF" d="M220.021,499.986c2.617,1.709,7.25,3.523,11.684,3.523c6.445,0,9.465-3.225,9.465-7.252
			c0-4.23-2.518-6.545-9.064-8.961c-8.764-3.125-12.891-7.957-12.891-13.799c0-7.857,6.346-14.299,16.818-14.299
			c4.934,0,9.268,1.408,11.982,3.02l-2.213,6.445c-1.912-1.209-5.438-2.82-9.971-2.82c-5.236,0-8.16,3.021-8.16,6.645
			c0,4.031,2.924,5.844,9.268,8.262c8.459,3.223,12.789,7.451,12.789,14.703c0,8.561-6.643,14.605-18.227,14.605
			c-5.34,0-10.275-1.313-13.697-3.322L220.021,499.986z"/>
		<path fill="#FFFFFF" d="M266.045,486.289c0.203,11.982,7.859,16.918,16.719,16.918c6.344,0,10.176-1.107,13.496-2.518l1.51,6.346
			c-3.119,1.412-8.457,3.023-16.213,3.023c-15.008,0-23.969-9.873-23.969-24.576s8.66-26.283,22.859-26.283
			c15.914,0,20.145,13.994,20.145,22.959c0,1.814-0.201,3.225-0.303,4.131H266.045z M292.029,479.943
			c0.104-5.637-2.314-14.402-12.285-14.402c-8.965,0-12.889,8.26-13.596,14.402H292.029z"/>
		<path fill="#FFFFFF" d="M353.668,437.543v58.916c0,4.33,0.102,9.266,0.404,12.592h-7.957l-0.402-8.463h-0.201
			c-2.719,5.441-8.662,9.568-16.621,9.568c-11.781,0-20.846-9.971-20.846-24.773c-0.102-16.215,9.973-26.184,21.854-26.184
			c7.455,0,12.488,3.521,14.707,7.449h0.201v-29.105H353.668z M344.807,480.145c0-1.107-0.102-2.617-0.404-3.727
			c-1.311-5.639-6.141-10.273-12.787-10.273c-9.166,0-14.605,8.057-14.605,18.836c0,9.869,4.832,18.027,14.402,18.027
			c5.941,0,11.381-3.93,12.99-10.574c0.303-1.209,0.404-2.416,0.404-3.83V480.145z"/>
		<path fill="#FFFFFF" d="M405.838,509.051l-8.66-15.008c-3.527-5.742-5.744-9.469-7.855-13.396h-0.203
			c-1.914,3.928-3.826,7.555-7.354,13.498l-8.156,14.906h-10.068l20.744-34.346l-19.939-33.535h10.17l8.963,15.912
			c2.52,4.432,4.432,7.855,6.244,11.48h0.303c1.914-4.029,3.625-7.148,6.145-11.48l9.266-15.912h10.068l-20.646,33.031l21.15,34.85
			H405.838z"/>
		<path fill="#FFFFFF" d="M483.391,479.24c-0.508-9.469-1.109-20.852-1.008-29.311h-0.305c-2.316,7.959-5.133,16.416-8.559,25.783
			l-11.984,32.934h-6.646l-10.979-32.328c-3.221-9.57-5.939-18.33-7.857-26.389h-0.201c-0.199,8.459-0.705,19.842-1.307,30.014
			l-1.813,29.107h-8.361l4.736-67.881h11.178l11.582,32.832c2.82,8.359,5.135,15.809,6.846,22.863h0.303
			c1.715-6.848,4.131-14.303,7.152-22.863l12.084-32.832h11.178l4.232,67.881h-8.561L483.391,479.24z"/>
		<path fill="#FFFFFF" d="M507.158,441.17h8.762v60.525h29.006v7.355h-37.768V441.17z"/>
	</g>
</g>
</svg>
