<?xml version="1.0" encoding="utf-8"?>
<!-- Generator: Adobe Illustrator 15.1.0, SVG Export Plug-In . SVG Version: 6.00 Build 0)  -->
<!DOCTYPE svg PUBLIC "-//W3C//DTD SVG 1.1//EN" "http://www.w3.org/Graphics/SVG/1.1/DTD/svg11.dtd">
<svg version="1.1" id="Layer_1" xmlns="http://www.w3.org/2000/svg" xmlns:xlink="http://www.w3.org/1999/xlink" x="0px" y="0px"
	 width="1231.729px" height="403.439px" viewBox="0 0 1231.729 403.439" enable-background="new 0 0 1231.729 403.439"
	 xml:space="preserve">
<g>
	<g>
		<path fill="#4CAF50" d="M289.117,149.316v104.814c0,14.847-12.039,26.882-26.893,26.882H157.419
			c-14.854,0-26.893-12.035-26.893-26.882V149.316c0-14.854,12.039-26.891,26.893-26.891h104.806
			C277.078,122.426,289.117,134.463,289.117,149.316z"/>
		<g>
			<g>
				
					<rect x="177.493" y="202.75" transform="matrix(0.7071 -0.7071 0.7071 0.7071 -91.6108 196.0841)" fill="#FFFFFF" width="26.775" height="11.745"/>
				
					<rect x="191.112" y="216.37" transform="matrix(0.7071 -0.7071 0.7071 0.7071 -97.2521 209.6969)" fill="#FFFFFF" width="26.776" height="11.744"/>
				
					<rect x="201.741" y="178.504" transform="matrix(0.7071 -0.7071 0.7071 0.7071 -67.3633 206.1214)" fill="#FFFFFF" width="26.776" height="11.744"/>
				
					<rect x="215.359" y="192.122" transform="matrix(0.7071 -0.7071 0.7071 0.7071 -73.0035 219.7401)" fill="#FFFFFF" width="26.779" height="11.743"/>
			</g>
			<g>
				<path fill="#FFFFFF" d="M143.313,200.951c4.893,0,6.049-3.293,6.049-6.227c0-2.58-0.268-5.07-0.535-7.561
					c-0.266-2.668-0.533-5.068-0.533-7.826c0-8.006,4.893-11.385,11.209-11.385h1.066v4.623h-1.334c-3.736,0-5.248,2.67-5.248,6.672
					c0,2.399,0.266,4.625,0.533,6.762c0.178,2.313,0.445,4.445,0.445,6.58c0.088,6.939-2.313,9.34-6.139,10.406v0.18
					c3.826,1.154,6.227,3.559,6.139,10.582c0,2.224-0.268,4.447-0.445,6.672c-0.268,2.225-0.533,4.447-0.533,6.85
					c0,4.002,1.334,6.76,5.336,6.76h1.246v4.624h-1.156c-5.871,0-11.119-2.934-11.119-11.384c0-2.67,0.268-5.338,0.533-7.916
					c0.268-2.58,0.535-5.158,0.535-7.648c0-2.848-1.156-6.317-6.049-6.317V200.951z"/>
				<path fill="#FFFFFF" d="M159.765,200.951c4.893,0,6.049-3.293,6.049-6.227c0-2.58-0.268-5.07-0.533-7.561
					c-0.268-2.668-0.533-5.068-0.533-7.826c0-8.006,4.891-11.385,11.207-11.385h1.066v4.623h-1.336c-3.734,0-5.246,2.67-5.246,6.672
					c0,2.399,0.268,4.625,0.533,6.762c0.18,2.313,0.445,4.445,0.445,6.58c0.088,6.939-2.313,9.34-6.137,10.406v0.18
					c3.824,1.154,6.225,3.559,6.137,10.582c0,2.224-0.266,4.447-0.445,6.672c-0.266,2.225-0.533,4.447-0.533,6.85
					c0,4.002,1.334,6.76,5.338,6.76h1.244v4.624h-1.156c-5.871,0-11.117-2.934-11.117-11.384c0-2.67,0.266-5.338,0.533-7.916
					c0.266-2.58,0.533-5.158,0.533-7.648c0-2.848-1.156-6.317-6.049-6.317V200.951z"/>
			</g>
			<g>
				<path fill="#FFFFFF" d="M276.367,205.397c-4.893,0-6.047,3.47-6.047,6.317c0,2.49,0.266,5.068,0.535,7.648
					c0.266,2.578,0.531,5.246,0.531,7.916c0,8.45-5.248,11.384-11.117,11.384h-1.158v-4.624h1.246c4.004,0,5.338-2.758,5.338-6.76
					c0-2.402-0.268-4.625-0.535-6.85c-0.176-2.225-0.443-4.448-0.443-6.672c-0.09-7.023,2.313-9.428,6.139-10.582v-0.18
					c-3.826-1.066-6.229-3.467-6.139-10.406c0-2.135,0.268-4.268,0.443-6.58c0.268-2.137,0.535-4.362,0.535-6.762
					c0-4.002-1.512-6.672-5.25-6.672h-1.334v-4.623h1.068c6.314,0,11.207,3.379,11.207,11.385c0,2.758-0.266,5.158-0.531,7.826
					c-0.27,2.49-0.535,4.98-0.535,7.561c0,2.934,1.154,6.227,6.047,6.227V205.397z"/>
				<path fill="#FFFFFF" d="M259.918,205.397c-4.893,0-6.049,3.47-6.049,6.317c0,2.49,0.268,5.068,0.533,7.648
					c0.266,2.578,0.533,5.246,0.533,7.916c0,8.45-5.246,11.384-11.117,11.384h-1.156v-4.624h1.244c4.004,0,5.336-2.758,5.336-6.76
					c0-2.402-0.266-4.625-0.533-6.85c-0.178-2.225-0.445-4.448-0.445-6.672c-0.088-7.023,2.314-9.428,6.139-10.582v-0.18
					c-3.824-1.066-6.227-3.467-6.139-10.406c0-2.135,0.268-4.268,0.445-6.58c0.268-2.137,0.533-4.362,0.533-6.762
					c0-4.002-1.512-6.672-5.246-6.672h-1.334v-4.623h1.068c6.313,0,11.205,3.379,11.205,11.385c0,2.758-0.268,5.158-0.533,7.826
					c-0.266,2.49-0.533,4.98-0.533,7.561c0,2.934,1.156,6.227,6.049,6.227V205.397z"/>
			</g>
		</g>
	</g>
	<g>
		<path fill="#4CAF50" d="M383.275,233.344c-3.213,1.605-9.641,3.213-17.875,3.213c-19.078,0-33.438-12.051-33.438-34.242
			c0-21.186,14.359-35.545,35.346-35.545c8.436,0,13.758,1.809,16.066,3.012l-2.107,7.131c-3.314-1.607-8.035-2.813-13.658-2.813
			c-15.865,0-26.408,10.143-26.408,27.916c0,16.568,9.539,27.209,26.006,27.209c5.322,0,10.746-1.102,14.26-2.809L383.275,233.344z"
			/>
		<path fill="#4CAF50" d="M393.916,164.26h8.836v71.293h-8.836V164.26z"/>
		<path fill="#4CAF50" d="M461.594,210.852c0,17.973-12.451,25.807-24.201,25.807c-13.152,0-23.295-9.641-23.295-25.004
			c0-16.268,10.645-25.807,24.1-25.807C452.154,185.848,461.594,195.992,461.594,210.852z M423.035,211.354
			c0,10.645,6.125,18.676,14.762,18.676c8.434,0,14.758-7.932,14.758-18.877c0-8.234-4.115-18.676-14.559-18.676
			S423.035,202.115,423.035,211.354z"/>
		<path fill="#4CAF50" d="M471.533,226.516c2.609,1.707,7.229,3.514,11.646,3.514c6.428,0,9.439-3.211,9.439-7.229
			c0-4.217-2.51-6.527-9.037-8.938c-8.734-3.111-12.854-7.934-12.854-13.758c0-7.83,6.326-14.258,16.77-14.258
			c4.92,0,9.238,1.408,11.949,3.012l-2.209,6.428c-1.908-1.205-5.422-2.811-9.941-2.811c-5.221,0-8.133,3.012-8.133,6.627
			c0,4.016,2.912,5.822,9.238,8.234c8.434,3.211,12.752,7.43,12.752,14.66c0,8.535-6.627,14.559-18.174,14.559
			c-5.322,0-10.242-1.305-13.656-3.313L471.533,226.516z"/>
		<path fill="#4CAF50" d="M517.42,212.859c0.201,11.949,7.832,16.869,16.668,16.869c6.326,0,10.143-1.104,13.455-2.51l1.508,6.324
			c-3.113,1.406-8.436,3.014-16.168,3.014c-14.961,0-23.898-9.84-23.898-24.5s8.637-26.209,22.793-26.209
			c15.867,0,20.084,13.959,20.084,22.895c0,1.807-0.201,3.213-0.301,4.117H517.42z M543.326,206.533
			c0.1-5.623-2.311-14.359-12.25-14.359c-8.938,0-12.854,8.234-13.557,14.359H543.326z"/>
		<path fill="#4CAF50" d="M604.777,164.26v58.742c0,4.316,0.1,9.236,0.4,12.551h-7.932l-0.4-8.436h-0.203
			c-2.711,5.422-8.635,9.541-16.566,9.541c-11.748,0-20.787-9.941-20.787-24.703c-0.1-16.166,9.941-26.107,21.791-26.107
			c7.43,0,12.451,3.516,14.66,7.432h0.201v-29.02H604.777z M595.941,206.734c0-1.105-0.102-2.611-0.402-3.715
			c-1.305-5.623-6.125-10.244-12.752-10.244c-9.139,0-14.561,8.033-14.561,18.779c0,9.84,4.82,17.973,14.359,17.973
			c5.924,0,11.346-3.914,12.953-10.543c0.301-1.203,0.402-2.41,0.402-3.814V206.734z"/>
		<path fill="#4CAF50" d="M656.788,235.553l-8.635-14.963c-3.516-5.723-5.725-9.438-7.832-13.354h-0.201
			c-1.908,3.916-3.816,7.531-7.33,13.455l-8.133,14.861h-10.042l20.685-34.242l-19.88-33.436h10.14l8.938,15.865
			c2.51,4.418,4.418,7.832,6.227,11.447h0.301c1.908-4.016,3.613-7.131,6.125-11.447l9.238-15.865h10.041l-20.586,32.934
			l21.088,34.744H656.788z"/>
		<path fill="#4CAF50" d="M734.104,205.83c-0.5-9.438-1.104-20.785-1.002-29.221h-0.301c-2.311,7.932-5.121,16.369-8.537,25.705
			l-11.949,32.838h-6.627l-10.945-32.234c-3.213-9.539-5.924-18.273-7.832-26.309h-0.201c-0.199,8.436-0.701,19.783-1.305,29.924
			l-1.807,29.02h-8.336l4.719-67.678h11.148l11.547,32.734c2.811,8.334,5.119,15.766,6.828,22.793h0.301
			c1.707-6.828,4.117-14.258,7.129-22.793l12.051-32.734h11.145l4.219,67.678h-8.535L734.104,205.83z"/>
		<path fill="#4CAF50" d="M757.8,167.875h8.736v60.348h28.918v7.33H757.8V167.875z"/>
		<path fill="#4CAF50" d="M802.782,230.332c0-3.717,2.51-6.328,6.025-6.328c3.514,0,5.924,2.611,5.924,6.328
			c0,3.613-2.309,6.326-6.025,6.326C805.192,236.658,802.782,233.945,802.782,230.332z"/>
		<path fill="#4CAF50" d="M825.976,168.779c4.418-0.904,10.744-1.408,16.77-1.408c9.338,0,15.363,1.709,19.58,5.523
			c3.414,3.012,5.322,7.631,5.322,12.854c0,8.936-5.623,14.861-12.754,17.271v0.303c5.223,1.807,8.336,6.625,9.941,13.654
			c2.209,9.439,3.814,15.967,5.223,18.576h-9.039c-1.104-1.908-2.609-7.732-4.518-16.166c-2.008-9.34-5.623-12.854-13.557-13.156
			h-8.232v29.322h-8.736V168.779z M834.712,199.604h8.936c9.34,0,15.264-5.12,15.264-12.853c0-8.736-6.326-12.551-15.564-12.652
			c-4.217,0-7.23,0.401-8.635,0.805V199.604z"/>
		<path fill="#4CAF50" d="M885.017,212.859c0.201,11.949,7.832,16.869,16.668,16.869c6.326,0,10.143-1.104,13.455-2.51l1.504,6.324
			c-3.109,1.406-8.432,3.014-16.162,3.014c-14.963,0-23.898-9.84-23.898-24.5s8.635-26.209,22.793-26.209
			c15.865,0,20.08,13.959,20.08,22.895c0,1.807-0.201,3.213-0.301,4.117H885.017z M910.923,206.533
			c0.102-5.623-2.309-14.359-12.25-14.359c-8.938,0-12.852,8.234-13.557,14.359H910.923z"/>
		<path fill="#4CAF50" d="M930.401,202.818c0-6.227-0.201-11.246-0.4-15.865h7.932l0.402,8.334h0.199
			c3.615-5.924,9.338-9.439,17.271-9.439c11.748,0,20.586,9.941,20.586,24.701c0,17.473-10.645,26.109-22.092,26.109
			c-6.428,0-12.049-2.813-14.963-7.631h-0.199v26.408h-8.736V202.818z M939.138,215.77c0,1.309,0.199,2.514,0.402,3.617
			c1.605,6.125,6.928,10.342,13.252,10.342c9.34,0,14.762-7.631,14.762-18.775c0-9.74-5.121-18.076-14.459-18.076
			c-6.025,0-11.648,4.318-13.355,10.945c-0.301,1.104-0.602,2.408-0.602,3.616V215.77z"/>
		<path fill="#4CAF50" d="M1031.517,210.852c0,17.973-12.451,25.807-24.201,25.807c-13.152,0-23.295-9.641-23.295-25.004
			c0-16.268,10.645-25.807,24.1-25.807C1022.077,185.848,1031.517,195.992,1031.517,210.852z M992.958,211.354
			c0,10.645,6.123,18.676,14.76,18.676c8.434,0,14.76-7.932,14.76-18.877c0-8.234-4.115-18.676-14.559-18.676
			S992.958,202.115,992.958,211.354z"/>
		<path fill="#4CAF50" d="M1042.661,202.115c0-5.723-0.102-10.645-0.402-15.162h7.73l0.303,9.539h0.4
			c2.209-6.527,7.531-10.645,13.455-10.645c1.004,0,1.707,0.102,2.512,0.303v8.334c-0.904-0.201-1.809-0.301-3.014-0.301
			c-6.225,0-10.643,4.717-11.848,11.346c-0.201,1.205-0.4,2.611-0.4,4.115v25.908h-8.736V202.115z"/>
		<path fill="#4CAF50" d="M1088.546,172.996v13.957h12.652v6.727h-12.652v26.209c0,6.025,1.707,9.439,6.629,9.439
			c2.309,0,4.016-0.301,5.121-0.604l0.4,6.627c-1.707,0.705-4.418,1.205-7.832,1.205c-4.117,0-7.43-1.305-9.537-3.715
			c-2.514-2.61-3.416-6.928-3.416-12.652v-26.51h-7.529v-6.727h7.529v-11.648L1088.546,172.996z"/>
	</g>
</g>
</svg>
