<?xml version="1.0" encoding="utf-8"?>
<!-- Generator: Adobe Illustrator 15.1.0, SVG Export Plug-In . SVG Version: 6.00 Build 0)  -->
<!DOCTYPE svg PUBLIC "-//W3C//DTD SVG 1.1//EN" "http://www.w3.org/Graphics/SVG/1.1/DTD/svg11.dtd">
<svg version="1.1" id="Layer_1" xmlns="http://www.w3.org/2000/svg" xmlns:xlink="http://www.w3.org/1999/xlink" x="0px" y="0px"
	 width="1231.73px" height="403.438px" viewBox="0 0 1231.73 403.438" enable-background="new 0 0 1231.73 403.438"
	 xml:space="preserve">
<g>
	<g>
		<path fill="#4CAF50" d="M331.865,115.714v172.022c0,24.368-19.758,44.125-44.137,44.125H115.717
			c-24.378,0-44.141-19.757-44.141-44.125V115.714c0-24.38,19.763-44.138,44.141-44.138h172.012
			C312.107,71.576,331.865,91.334,331.865,115.714z"/>
		<path opacity="0.2" fill="#4CAF50" d="M331.865,195.884v91.853c0,24.368-19.758,44.125-44.137,44.125h-91.852l-96.889-96.891
			L234.963,98.983L331.865,195.884z"/>
		<g>
			
				<rect x="99.936" y="199.965" transform="matrix(0.7071 -0.7071 0.7071 0.7071 -112.8535 164.4603)" fill="#FFFFFF" width="84.32" height="36.986"/>
			
				<rect x="142.823" y="242.855" transform="matrix(0.7071 -0.7071 0.7071 0.7071 -130.6175 207.3456)" fill="#FFFFFF" width="84.324" height="36.981"/>
			
				<rect x="176.295" y="123.607" transform="matrix(0.7071 -0.7071 0.7071 0.7071 -36.4939 196.0901)" fill="#FFFFFF" width="84.325" height="36.982"/>
			
				<rect x="219.182" y="166.493" transform="matrix(0.7071 -0.7071 0.7071 0.7071 -54.2557 238.99)" fill="#FFFFFF" width="84.327" height="36.983"/>
		</g>
	</g>
	<g>
		<path fill="#4CAF50" d="M487.209,254.556c-5.246,2.627-15.735,5.249-29.179,5.249c-31.149,0-54.589-19.673-54.589-55.905
			c0-34.582,23.439-58.023,57.701-58.023c13.772,0,22.459,2.95,26.227,4.913l-3.439,11.644c-5.413-2.629-13.113-4.591-22.293-4.591
			c-25.902,0-43.113,16.553-43.113,45.573c0,27.043,15.57,44.422,42.456,44.422c8.691,0,17.537-1.805,23.279-4.592L487.209,254.556z
			"/>
		<path fill="#4CAF50" d="M504.586,141.775h14.427v116.389h-14.427V141.775z"/>
		<path fill="#4CAF50" d="M615.073,217.838c0,29.347-20.326,42.125-39.507,42.125c-21.475,0-38.028-15.735-38.028-40.814
			c0-26.559,17.374-42.128,39.34-42.128C599.666,177.021,615.073,193.577,615.073,217.838z M552.127,218.658
			c0,17.373,10.001,30.488,24.099,30.488c13.768,0,24.094-12.953,24.094-30.815c0-13.443-6.721-30.494-23.769-30.494
			C559.502,187.837,552.127,203.573,552.127,218.658z"/>
		<path fill="#4CAF50" d="M631.308,243.412c4.261,2.786,11.802,5.734,19.018,5.734c10.489,0,15.406-5.246,15.406-11.798
			c0-6.891-4.099-10.655-14.757-14.59c-14.259-5.088-20.983-12.951-20.983-22.466c0-12.787,10.333-23.272,27.381-23.272
			c8.03,0,15.082,2.297,19.506,4.918l-3.607,10.491c-3.114-1.969-8.849-4.593-16.229-4.593c-8.521,0-13.277,4.923-13.277,10.819
			c0,6.561,4.756,9.512,15.086,13.447c13.769,5.242,20.816,12.127,20.816,23.928c0,13.935-10.817,23.773-29.671,23.773
			c-8.688,0-16.723-2.129-22.293-5.405L631.308,243.412z"/>
		<path fill="#4CAF50" d="M706.222,221.117c0.334,19.508,12.788,27.537,27.217,27.537c10.326,0,16.558-1.8,21.962-4.098
			l2.457,10.332c-5.078,2.294-13.768,4.916-26.388,4.916c-24.425,0-39.014-16.067-39.014-40.003c0-23.933,14.1-42.781,37.211-42.781
			c25.901,0,32.785,22.784,32.785,37.374c0,2.951-0.325,5.246-0.493,6.723H706.222z M748.514,210.785
			c0.17-9.173-3.765-23.44-19.994-23.44c-14.594,0-20.982,13.448-22.133,23.44H748.514z"/>
		<path fill="#4CAF50" d="M848.844,141.775v95.898c0,7.048,0.164,15.079,0.657,20.49h-12.954l-0.652-13.766h-0.325
			c-4.433,8.848-14.103,15.564-27.052,15.564c-19.18,0-33.93-16.226-33.93-40.322c-0.166-26.389,16.225-42.62,35.572-42.62
			c12.128,0,20.321,5.737,23.932,12.132h0.327v-47.377H848.844z M834.419,211.115c0-1.801-0.161-4.262-0.657-6.065
			c-2.133-9.181-9.994-16.718-20.813-16.718c-14.921,0-23.775,13.114-23.775,30.657c0,16.059,7.865,29.34,23.441,29.34
			c9.673,0,18.521-6.39,21.146-17.211c0.496-1.962,0.657-3.931,0.657-6.231V211.115z"/>
		<path fill="#4CAF50" d="M933.768,258.164l-14.103-24.426c-5.743-9.344-9.344-15.407-12.79-21.802h-0.325
			c-3.114,6.395-6.228,12.294-11.97,21.968l-13.271,24.26h-16.396l33.77-55.9l-32.455-54.588h16.555l14.588,25.903
			c4.102,7.21,7.215,12.783,10.162,18.684h0.494c3.114-6.556,5.896-11.64,10-18.684l15.082-25.903h16.39l-33.606,53.771
			l34.43,56.718H933.768z"/>
		<path fill="#4CAF50" d="M1059.989,209.641c-0.821-15.409-1.808-33.932-1.642-47.705h-0.488
			c-3.774,12.949-8.359,26.722-13.932,41.964l-19.508,53.61h-10.818l-17.868-52.622c-5.249-15.57-9.673-29.834-12.79-42.952h-0.332
			c-0.325,13.773-1.144,32.296-2.123,48.85l-2.951,47.379h-13.609l7.703-110.488h18.199l18.853,53.438
			c4.585,13.61,8.354,25.737,11.142,37.214h0.498c2.783-11.141,6.719-23.277,11.636-37.214l19.672-53.438h18.196l6.882,110.488
			h-13.932L1059.989,209.641z"/>
		<path fill="#4CAF50" d="M1098.68,147.676h14.264v98.522h47.21v11.966h-61.474V147.676z"/>
	</g>
</g>
</svg>
