<?xml version="1.0" encoding="utf-8"?>
<!-- Generator: Adobe Illustrator 15.1.0, SVG Export Plug-In . SVG Version: 6.00 Build 0)  -->
<!DOCTYPE svg PUBLIC "-//W3C//DTD SVG 1.1//EN" "http://www.w3.org/Graphics/SVG/1.1/DTD/svg11.dtd">
<svg version="1.1" id="Layer_1" xmlns="http://www.w3.org/2000/svg" xmlns:xlink="http://www.w3.org/1999/xlink" x="0px" y="0px"
	 width="1231.73px" height="403.439px" viewBox="0 0 1231.73 403.439" enable-background="new 0 0 1231.73 403.439"
	 xml:space="preserve">
<g>
	<g>
		<path d="M262.229,128.37c5.596,0,10.855,2.179,14.811,6.135s6.135,9.216,6.135,14.812v104.814c0,5.593-2.18,10.851-6.135,14.805
			c-3.955,3.955-9.215,6.134-14.811,6.134H157.422c-11.551,0-20.947-9.394-20.947-20.938V149.316c0-5.595,2.18-10.855,6.135-14.812
			c3.957-3.956,9.217-6.135,14.813-6.135H262.229 M262.229,122.423H157.422c-14.854,0-26.895,12.039-26.895,26.894v104.814
			c0,14.848,12.041,26.886,26.895,26.886h104.807c14.854,0,26.893-12.038,26.893-26.886V149.316
			C289.121,134.462,277.082,122.423,262.229,122.423L262.229,122.423z"/>
		<g>
			<g>
				
					<rect x="177.497" y="202.751" transform="matrix(0.7071 -0.7071 0.7071 0.7071 -91.6109 196.0869)" width="26.774" height="11.745"/>
				
					<rect x="191.115" y="216.37" transform="matrix(0.7071 -0.7071 0.7071 0.7071 -97.2514 209.7063)" width="26.777" height="11.743"/>
				
					<rect x="201.744" y="178.503" transform="matrix(0.7071 -0.7071 0.7071 0.7071 -67.3613 206.1313)" width="26.777" height="11.744"/>
				
					<rect x="215.363" y="192.122" transform="matrix(0.7071 -0.7071 0.7071 0.7071 -73.0016 219.7586)" width="26.778" height="11.744"/>
			</g>
			<g>
				<path d="M143.316,200.951c4.893,0,6.049-3.29,6.049-6.226c0-2.58-0.268-5.07-0.533-7.561c-0.268-2.669-0.533-5.07-0.533-7.828
					c0-8.005,4.891-11.385,11.207-11.385h1.066v4.625h-1.334c-3.736,0-5.248,2.669-5.248,6.672c0,2.401,0.268,4.625,0.533,6.76
					c0.178,2.313,0.445,4.447,0.445,6.582c0.09,6.938-2.313,9.34-6.137,10.407v0.177c3.824,1.157,6.227,3.559,6.137,10.585
					c0,2.223-0.268,4.447-0.445,6.671c-0.266,2.225-0.533,4.448-0.533,6.849c0,4.003,1.334,6.761,5.338,6.761h1.244v4.625h-1.156
					c-5.871,0-11.117-2.936-11.117-11.386c0-2.668,0.266-5.336,0.533-7.916c0.266-2.579,0.533-5.158,0.533-7.648
					c0-2.848-1.156-6.315-6.049-6.315V200.951z"/>
				<path d="M159.768,200.951c4.893,0,6.049-3.29,6.049-6.226c0-2.58-0.268-5.07-0.533-7.561c-0.268-2.669-0.535-5.07-0.535-7.828
					c0-8.005,4.893-11.385,11.209-11.385h1.066v4.625h-1.334c-3.736,0-5.248,2.669-5.248,6.672c0,2.401,0.268,4.625,0.533,6.76
					c0.178,2.313,0.445,4.447,0.445,6.582c0.088,6.938-2.313,9.34-6.137,10.407v0.177c3.824,1.157,6.225,3.559,6.137,10.585
					c0,2.223-0.268,4.447-0.445,6.671c-0.266,2.225-0.533,4.448-0.533,6.849c0,4.003,1.334,6.761,5.336,6.761h1.246v4.625h-1.156
					c-5.871,0-11.119-2.936-11.119-11.386c0-2.668,0.268-5.336,0.535-7.916c0.266-2.579,0.533-5.158,0.533-7.648
					c0-2.848-1.156-6.315-6.049-6.315V200.951z"/>
			</g>
			<g>
				<path d="M276.371,205.399c-4.893,0-6.049,3.468-6.049,6.315c0,2.49,0.268,5.069,0.535,7.648c0.266,2.58,0.533,5.248,0.533,7.916
					c0,8.45-5.248,11.386-11.119,11.386h-1.156v-4.625h1.246c4.002,0,5.336-2.758,5.336-6.761c0-2.4-0.266-4.624-0.533-6.849
					c-0.178-2.224-0.445-4.448-0.445-6.671c-0.088-7.026,2.313-9.428,6.139-10.585v-0.177c-3.826-1.067-6.227-3.47-6.139-10.407
					c0-2.135,0.268-4.27,0.445-6.582c0.268-2.135,0.533-4.358,0.533-6.76c0-4.003-1.512-6.672-5.248-6.672h-1.334v-4.625h1.068
					c6.314,0,11.207,3.38,11.207,11.385c0,2.758-0.268,5.159-0.533,7.828c-0.268,2.49-0.535,4.98-0.535,7.561
					c0,2.936,1.156,6.226,6.049,6.226V205.399z"/>
				<path d="M259.92,205.399c-4.893,0-6.049,3.468-6.049,6.315c0,2.49,0.268,5.069,0.535,7.648c0.266,2.58,0.533,5.248,0.533,7.916
					c0,8.45-5.248,11.386-11.117,11.386h-1.158v-4.625h1.246c4.002,0,5.336-2.758,5.336-6.761c0-2.4-0.266-4.624-0.533-6.849
					c-0.178-2.224-0.443-4.448-0.443-6.671c-0.09-7.026,2.311-9.428,6.137-10.585v-0.177c-3.826-1.067-6.227-3.47-6.137-10.407
					c0-2.135,0.266-4.27,0.443-6.582c0.268-2.135,0.533-4.358,0.533-6.76c0-4.003-1.512-6.672-5.246-6.672h-1.336v-4.625h1.068
					c6.314,0,11.207,3.38,11.207,11.385c0,2.758-0.268,5.159-0.533,7.828c-0.268,2.49-0.535,4.98-0.535,7.561
					c0,2.936,1.156,6.226,6.049,6.226V205.399z"/>
			</g>
		</g>
	</g>
	<g>
		<path d="M383.279,233.344c-3.213,1.605-9.641,3.213-17.875,3.213c-19.078,0-33.438-12.051-33.438-34.242
			c0-21.186,14.359-35.545,35.346-35.545c8.436,0,13.758,1.809,16.066,3.012l-2.107,7.131c-3.314-1.607-8.035-2.813-13.658-2.813
			c-15.865,0-26.408,10.143-26.408,27.916c0,16.568,9.539,27.209,26.006,27.209c5.322,0,10.746-1.102,14.26-2.809L383.279,233.344z"
			/>
		<path d="M393.92,164.26h8.836v71.293h-8.836V164.26z"/>
		<path d="M461.598,210.852c0,17.973-12.451,25.807-24.201,25.807c-13.152,0-23.295-9.641-23.295-25.004
			c0-16.268,10.645-25.807,24.1-25.807C452.158,185.848,461.598,195.992,461.598,210.852z M423.039,211.354
			c0,10.645,6.125,18.676,14.762,18.676c8.434,0,14.758-7.932,14.758-18.877c0-8.234-4.115-18.676-14.559-18.676
			S423.039,202.115,423.039,211.354z"/>
		<path d="M471.537,226.516c2.609,1.707,7.229,3.514,11.646,3.514c6.428,0,9.439-3.211,9.439-7.229c0-4.217-2.51-6.527-9.037-8.938
			c-8.734-3.111-12.854-7.934-12.854-13.758c0-7.83,6.326-14.258,16.77-14.258c4.92,0,9.238,1.408,11.949,3.012l-2.209,6.428
			c-1.908-1.205-5.422-2.811-9.941-2.811c-5.221,0-8.133,3.012-8.133,6.627c0,4.016,2.912,5.822,9.238,8.234
			c8.434,3.211,12.752,7.43,12.752,14.66c0,8.535-6.627,14.559-18.174,14.559c-5.322,0-10.242-1.305-13.656-3.313L471.537,226.516z"
			/>
		<path d="M517.424,212.859c0.201,11.949,7.832,16.869,16.668,16.869c6.326,0,10.143-1.104,13.455-2.51l1.508,6.324
			c-3.113,1.406-8.436,3.014-16.168,3.014c-14.961,0-23.898-9.84-23.898-24.5s8.637-26.209,22.793-26.209
			c15.867,0,20.084,13.959,20.084,22.895c0,1.807-0.201,3.213-0.301,4.117H517.424z M543.33,206.533
			c0.1-5.623-2.311-14.359-12.25-14.359c-8.938,0-12.854,8.234-13.557,14.359H543.33z"/>
		<path d="M604.781,164.26v58.742c0,4.316,0.1,9.236,0.4,12.551h-7.932l-0.4-8.436h-0.203c-2.711,5.422-8.635,9.541-16.566,9.541
			c-11.748,0-20.787-9.941-20.787-24.703c-0.1-16.166,9.941-26.107,21.791-26.107c7.43,0,12.451,3.516,14.66,7.432h0.201v-29.02
			H604.781z M595.945,206.734c0-1.105-0.102-2.611-0.402-3.715c-1.305-5.623-6.125-10.244-12.752-10.244
			c-9.139,0-14.561,8.033-14.561,18.779c0,9.84,4.82,17.973,14.359,17.973c5.924,0,11.346-3.914,12.953-10.543
			c0.301-1.203,0.402-2.41,0.402-3.814V206.734z"/>
		<path d="M656.793,235.553l-8.635-14.963c-3.516-5.723-5.725-9.438-7.832-13.354h-0.201c-1.908,3.916-3.816,7.531-7.33,13.455
			l-8.133,14.861h-10.043l20.686-34.242l-19.881-33.436h10.141l8.938,15.865c2.51,4.418,4.418,7.832,6.227,11.447h0.301
			c1.908-4.016,3.613-7.131,6.125-11.447l9.238-15.865h10.041l-20.586,32.934l21.088,34.744H656.793z"/>
		<path d="M734.109,205.83c-0.5-9.438-1.104-20.785-1.002-29.221h-0.301c-2.311,7.932-5.121,16.369-8.537,25.705l-11.949,32.838
			h-6.627l-10.945-32.234c-3.213-9.539-5.924-18.273-7.832-26.309h-0.201c-0.199,8.436-0.701,19.783-1.305,29.924l-1.807,29.02
			h-8.336l4.719-67.678h11.148l11.547,32.734c2.811,8.334,5.119,15.766,6.828,22.793h0.301c1.707-6.828,4.117-14.258,7.129-22.793
			l12.051-32.734h11.145l4.219,67.678h-8.535L734.109,205.83z"/>
		<path d="M757.805,167.875h8.736v60.348h28.918v7.33h-37.654V167.875z"/>
		<path d="M802.787,230.332c0-3.717,2.51-6.328,6.025-6.328c3.514,0,5.924,2.611,5.924,6.328c0,3.613-2.309,6.326-6.025,6.326
			C805.197,236.658,802.787,233.945,802.787,230.332z"/>
		<path d="M825.98,168.779c4.418-0.904,10.744-1.408,16.77-1.408c9.338,0,15.363,1.709,19.58,5.523
			c3.414,3.012,5.322,7.631,5.322,12.854c0,8.936-5.623,14.861-12.754,17.271v0.303c5.223,1.807,8.336,6.625,9.941,13.654
			c2.209,9.439,3.814,15.967,5.223,18.576h-9.039c-1.104-1.908-2.609-7.732-4.518-16.166c-2.008-9.34-5.623-12.854-13.557-13.156
			h-8.232v29.322h-8.736V168.779z M834.717,199.604h8.936c9.34,0,15.264-5.12,15.264-12.853c0-8.736-6.326-12.551-15.564-12.652
			c-4.217,0-7.23,0.401-8.635,0.805V199.604z"/>
		<path d="M885.021,212.859c0.201,11.949,7.832,16.869,16.668,16.869c6.326,0,10.143-1.104,13.455-2.51l1.506,6.324
			c-3.111,1.406-8.434,3.014-16.164,3.014c-14.963,0-23.898-9.84-23.898-24.5s8.635-26.209,22.793-26.209
			c15.865,0,20.082,13.959,20.082,22.895c0,1.807-0.201,3.213-0.301,4.117H885.021z M910.928,206.533
			c0.102-5.623-2.309-14.359-12.25-14.359c-8.938,0-12.852,8.234-13.557,14.359H910.928z"/>
		<path d="M930.406,202.818c0-6.227-0.201-11.246-0.4-15.865h7.932l0.402,8.334h0.199c3.615-5.924,9.338-9.439,17.271-9.439
			c11.748,0,20.586,9.941,20.586,24.701c0,17.473-10.645,26.109-22.092,26.109c-6.428,0-12.049-2.813-14.963-7.631h-0.199v26.408
			h-8.736V202.818z M939.143,215.77c0,1.309,0.199,2.514,0.402,3.617c1.605,6.125,6.928,10.342,13.252,10.342
			c9.34,0,14.762-7.631,14.762-18.775c0-9.74-5.121-18.076-14.459-18.076c-6.025,0-11.648,4.318-13.355,10.945
			c-0.301,1.104-0.602,2.408-0.602,3.616V215.77z"/>
		<path d="M1031.521,210.852c0,17.973-12.451,25.807-24.201,25.807c-13.152,0-23.295-9.641-23.295-25.004
			c0-16.268,10.645-25.807,24.1-25.807C1022.082,185.848,1031.521,195.992,1031.521,210.852z M992.963,211.354
			c0,10.645,6.123,18.676,14.76,18.676c8.434,0,14.76-7.932,14.76-18.877c0-8.234-4.115-18.676-14.559-18.676
			S992.963,202.115,992.963,211.354z"/>
		<path d="M1042.666,202.115c0-5.723-0.102-10.645-0.402-15.162h7.73l0.303,9.539h0.4c2.209-6.527,7.531-10.645,13.455-10.645
			c1.004,0,1.707,0.102,2.512,0.303v8.334c-0.904-0.201-1.809-0.301-3.014-0.301c-6.225,0-10.643,4.717-11.848,11.346
			c-0.201,1.205-0.4,2.611-0.4,4.115v25.908h-8.736V202.115z"/>
		<path d="M1088.551,172.996v13.957h12.652v6.727h-12.652v26.209c0,6.025,1.707,9.439,6.629,9.439c2.309,0,4.016-0.301,5.121-0.604
			l0.4,6.627c-1.707,0.705-4.418,1.205-7.832,1.205c-4.117,0-7.43-1.305-9.537-3.715c-2.514-2.61-3.416-6.928-3.416-12.652v-26.51
			h-7.529v-6.727h7.529v-11.648L1088.551,172.996z"/>
	</g>
</g>
</svg>
